<svg width="135" height="20" viewBox="0 0 135 20" fill="none" xmlns="http://www.w3.org/2000/svg">
<path d="M46.8661 8.22834C46.8235 7.79865 46.6406 7.46484 46.3175 7.22692C45.9943 6.98899 45.5558 6.87003 45.0018 6.87003C44.6254 6.87003 44.3075 6.9233 44.0483 7.02983C43.7891 7.13281 43.5902 7.27663 43.4517 7.46129C43.3168 7.64595 43.2493 7.85547 43.2493 8.08984C43.2422 8.28516 43.283 8.45561 43.3718 8.60121C43.4641 8.7468 43.5902 8.87287 43.75 8.9794C43.9098 9.08239 44.0945 9.17294 44.304 9.25107C44.5135 9.32564 44.7372 9.38956 44.9751 9.44283L45.9553 9.6772C46.4311 9.78374 46.8679 9.92578 47.2656 10.1033C47.6634 10.2809 48.0078 10.4993 48.299 10.7585C48.5902 11.0178 48.8157 11.3232 48.9755 11.6747C49.1388 12.0263 49.2223 12.4293 49.2259 12.8839C49.2223 13.5515 49.0518 14.1303 48.7145 14.6204C48.3807 15.1069 47.8977 15.4851 47.2656 15.755C46.6371 16.0213 45.8789 16.1545 44.9911 16.1545C44.1104 16.1545 43.3434 16.0195 42.69 15.7496C42.0401 15.4798 41.5323 15.0803 41.1665 14.5511C40.8043 14.0185 40.6143 13.3597 40.5966 12.5749H42.8285C42.8533 12.9407 42.9581 13.2461 43.1428 13.4911C43.331 13.7326 43.5813 13.9155 43.8938 14.0398C44.2099 14.1605 44.5668 14.2209 44.9645 14.2209C45.3551 14.2209 45.6942 14.1641 45.9819 14.0504C46.2731 13.9368 46.4986 13.7788 46.6584 13.5763C46.8182 13.3739 46.8981 13.1413 46.8981 12.8786C46.8981 12.6335 46.8253 12.4276 46.6797 12.2607C46.5376 12.0937 46.3281 11.9517 46.0511 11.8345C45.7777 11.7173 45.4421 11.6108 45.0444 11.5149L43.8565 11.2166C42.9368 10.9929 42.2106 10.6431 41.6779 10.1673C41.1452 9.69141 40.8807 9.05043 40.8842 8.24432C40.8807 7.58381 41.0565 7.00675 41.4116 6.51314C41.7702 6.01953 42.2621 5.63423 42.8871 5.35724C43.5121 5.08026 44.2223 4.94176 45.0178 4.94176C45.8274 4.94176 46.5341 5.08026 47.1378 5.35724C47.745 5.63423 48.2173 6.01953 48.5547 6.51314C48.892 7.00675 49.0661 7.57848 49.0767 8.22834H46.8661ZM53.0038 11.2699V16H50.7346V7.81818H52.8973V9.26172H52.9932C53.1743 8.78587 53.4779 8.40945 53.904 8.13246C54.3302 7.85192 54.8469 7.71165 55.4541 7.71165C56.0223 7.71165 56.5177 7.83594 56.9403 8.08452C57.3628 8.3331 57.6913 8.68821 57.9257 9.14986C58.1601 9.60795 58.2773 10.1548 58.2773 10.7905V16H56.0081V11.1953C56.0116 10.6946 55.8838 10.304 55.6246 10.0234C55.3653 9.73935 55.0084 9.5973 54.5539 9.5973C54.2485 9.5973 53.9786 9.663 53.7442 9.79439C53.5134 9.92578 53.3323 10.1175 53.2009 10.3697C53.0731 10.6183 53.0074 10.9183 53.0038 11.2699ZM60.0657 16V7.81818H62.3349V16H60.0657ZM61.2056 6.76349C60.8683 6.76349 60.5788 6.65163 60.3374 6.42791C60.0994 6.20064 59.9805 5.92898 59.9805 5.61293C59.9805 5.30043 60.0994 5.03232 60.3374 4.80859C60.5788 4.58132 60.8683 4.46768 61.2056 4.46768C61.543 4.46768 61.8306 4.58132 62.0685 4.80859C62.31 5.03232 62.4308 5.30043 62.4308 5.61293C62.4308 5.92898 62.31 6.20064 62.0685 6.42791C61.8306 6.65163 61.543 6.76349 61.2056 6.76349ZM64.1526 19.0682V7.81818H66.3898V9.19247H66.491C66.5905 8.9723 66.7343 8.74858 66.9225 8.52131C67.1143 8.29048 67.3628 8.09872 67.6682 7.94602C67.9772 7.78977 68.3607 7.71165 68.8188 7.71165C69.4154 7.71165 69.9658 7.8679 70.4701 8.1804C70.9743 8.48935 71.3774 8.95632 71.6792 9.58132C71.9811 10.2028 72.132 10.9822 72.132 11.9197C72.132 12.8324 71.9846 13.603 71.6899 14.2315C71.3987 14.8565 71.001 15.3306 70.4967 15.6538C69.996 15.9734 69.4349 16.1332 68.8135 16.1332C68.3731 16.1332 67.9985 16.0604 67.6895 15.9148C67.3841 15.7692 67.1338 15.5863 66.9385 15.3661C66.7432 15.1424 66.594 14.9169 66.491 14.6896H66.4218V19.0682H64.1526ZM66.3738 11.9091C66.3738 12.3956 66.4413 12.82 66.5763 13.1822C66.7112 13.5444 66.9065 13.8267 67.1622 14.0291C67.4179 14.228 67.7286 14.3274 68.0944 14.3274C68.4637 14.3274 68.7762 14.2262 69.0319 14.0238C69.2876 13.8178 69.4811 13.5337 69.6125 13.1715C69.7474 12.8058 69.8149 12.3849 69.8149 11.9091C69.8149 11.4368 69.7492 11.0213 69.6178 10.6626C69.4864 10.304 69.2929 10.0234 69.0372 9.82102C68.7815 9.61861 68.4672 9.5174 68.0944 9.5174C67.7251 9.5174 67.4126 9.61506 67.1569 9.81037C66.9047 10.0057 66.7112 10.2827 66.5763 10.6413C66.4413 11 66.3738 11.4226 66.3738 11.9091ZM73.6448 19.0682V7.81818H75.882V9.19247H75.9832C76.0827 8.9723 76.2265 8.74858 76.4147 8.52131C76.6064 8.29048 76.855 8.09872 77.1604 7.94602C77.4694 7.78977 77.8529 7.71165 78.311 7.71165C78.9076 7.71165 79.458 7.8679 79.9623 8.1804C80.4665 8.48935 80.8696 8.95632 81.1714 9.58132C81.4733 10.2028 81.6242 10.9822 81.6242 11.9197C81.6242 12.8324 81.4768 13.603 81.1821 14.2315C80.8909 14.8565 80.4932 15.3306 79.9889 15.6538C79.4882 15.9734 78.9271 16.1332 78.3057 16.1332C77.8653 16.1332 77.4907 16.0604 77.1817 15.9148C76.8763 15.7692 76.626 15.5863 76.4307 15.3661C76.2354 15.1424 76.0862 14.9169 75.9832 14.6896H75.914V19.0682H73.6448ZM75.866 11.9091C75.866 12.3956 75.9335 12.82 76.0684 13.1822C76.2034 13.5444 76.3987 13.8267 76.6544 14.0291C76.9101 14.228 77.2208 14.3274 77.5866 14.3274C77.9559 14.3274 78.2684 14.2262 78.5241 14.0238C78.7797 13.8178 78.9733 13.5337 79.1047 13.1715C79.2396 12.8058 79.3071 12.3849 79.3071 11.9091C79.3071 11.4368 79.2414 11.0213 79.11 10.6626C78.9786 10.304 78.7851 10.0234 78.5294 9.82102C78.2737 9.61861 77.9594 9.5174 77.5866 9.5174C77.2172 9.5174 76.9047 9.61506 76.6491 9.81037C76.3969 10.0057 76.2034 10.2827 76.0684 10.6413C75.9335 11 75.866 11.4226 75.866 11.9091ZM86.8657 16.1598C86.0241 16.1598 85.2996 15.9893 84.6924 15.6484C84.0887 15.304 83.6235 14.8175 83.2968 14.1889C82.9701 13.5568 82.8067 12.8093 82.8067 11.9464C82.8067 11.1048 82.9701 10.3661 83.2968 9.73047C83.6235 9.09482 84.0834 8.59943 84.6764 8.24432C85.273 7.8892 85.9726 7.71165 86.7751 7.71165C87.3149 7.71165 87.8174 7.79865 88.2826 7.97266C88.7513 8.14311 89.1597 8.40057 89.5077 8.74503C89.8593 9.08949 90.1327 9.52273 90.328 10.0447C90.5233 10.5632 90.621 11.1705 90.621 11.8665V12.4897H83.7123V11.0835H88.485C88.485 10.7567 88.414 10.4673 88.2719 10.2152C88.1299 9.96307 87.9328 9.76598 87.6807 9.62393C87.4321 9.47834 87.1427 9.40554 86.8124 9.40554C86.468 9.40554 86.1626 9.48544 85.8962 9.64524C85.6334 9.80149 85.4275 10.0128 85.2783 10.2791C85.1292 10.5419 85.0528 10.8349 85.0493 11.158V12.495C85.0493 12.8999 85.1238 13.2496 85.273 13.5444C85.4257 13.8391 85.6405 14.0664 85.9175 14.2262C86.1945 14.386 86.523 14.4659 86.903 14.4659C87.1551 14.4659 87.3859 14.4304 87.5954 14.3594C87.805 14.2884 87.9843 14.1818 88.1334 14.0398C88.2826 13.8977 88.3962 13.7237 88.4743 13.5178L90.5731 13.6562C90.4665 14.1605 90.2481 14.6009 89.9179 14.9773C89.5912 15.3501 89.1686 15.6413 88.6501 15.8509C88.1352 16.0568 87.5404 16.1598 86.8657 16.1598ZM96.4537 7.81818V9.52273H91.5265V7.81818H96.4537ZM92.6452 5.85795H94.9143V13.4858C94.9143 13.6953 94.9463 13.8587 95.0102 13.9759C95.0741 14.0895 95.1629 14.1694 95.2765 14.2156C95.3937 14.2617 95.5287 14.2848 95.6814 14.2848C95.7879 14.2848 95.8944 14.2759 96.001 14.2582C96.1075 14.2369 96.1892 14.2209 96.246 14.2102L96.6029 15.8988C96.4893 15.9343 96.3295 15.9751 96.1235 16.0213C95.9175 16.071 95.6672 16.1012 95.3724 16.1119C94.8256 16.1332 94.3461 16.0604 93.9342 15.8935C93.5258 15.7266 93.208 15.4673 92.9807 15.1158C92.7535 14.7642 92.6416 14.3203 92.6452 13.7841V5.85795ZM98.1503 16V5.09091H100.419V9.19247H100.489C100.588 8.9723 100.732 8.74858 100.92 8.52131C101.112 8.29048 101.361 8.09872 101.666 7.94602C101.975 7.78977 102.358 7.71165 102.816 7.71165C103.413 7.71165 103.964 7.8679 104.468 8.1804C104.972 8.48935 105.375 8.95632 105.677 9.58132C105.979 10.2028 106.13 10.9822 106.13 11.9197C106.13 12.8324 105.982 13.603 105.688 14.2315C105.396 14.8565 104.999 15.3306 104.494 15.6538C103.994 15.9734 103.433 16.1332 102.811 16.1332C102.371 16.1332 101.996 16.0604 101.687 15.9148C101.382 15.7692 101.131 15.5863 100.936 15.3661C100.741 15.1424 100.592 14.9169 100.489 14.6896H100.388V16H98.1503ZM100.372 11.9091C100.372 12.3956 100.439 12.82 100.574 13.1822C100.709 13.5444 100.904 13.8267 101.16 14.0291C101.416 14.228 101.726 14.3274 102.092 14.3274C102.461 14.3274 102.774 14.2262 103.03 14.0238C103.285 13.8178 103.479 13.5337 103.61 13.1715C103.745 12.8058 103.813 12.3849 103.813 11.9091C103.813 11.4368 103.747 11.0213 103.616 10.6626C103.484 10.304 103.291 10.0234 103.035 9.82102C102.779 9.61861 102.465 9.5174 102.092 9.5174C101.723 9.5174 101.41 9.61506 101.155 9.81037C100.902 10.0057 100.709 10.2827 100.574 10.6413C100.439 11 100.372 11.4226 100.372 11.9091ZM109.977 16.1545C109.455 16.1545 108.99 16.0639 108.581 15.8828C108.173 15.6982 107.85 15.4265 107.612 15.0678C107.377 14.7056 107.26 14.2546 107.26 13.7148C107.26 13.2603 107.344 12.8786 107.511 12.5696C107.678 12.2607 107.905 12.0121 108.192 11.8239C108.48 11.6357 108.807 11.4936 109.173 11.3977C109.542 11.3018 109.929 11.2344 110.334 11.1953C110.81 11.1456 111.193 11.0994 111.484 11.0568C111.776 11.0107 111.987 10.9432 112.118 10.8544C112.25 10.7656 112.315 10.6342 112.315 10.4602V10.4283C112.315 10.0909 112.209 9.8299 111.996 9.64524C111.786 9.46058 111.488 9.36825 111.101 9.36825C110.692 9.36825 110.368 9.45881 110.126 9.63991C109.885 9.81747 109.725 10.0412 109.647 10.3111L107.548 10.1406C107.654 9.64347 107.864 9.21378 108.176 8.85156C108.489 8.4858 108.892 8.20526 109.386 8.00994C109.883 7.81108 110.458 7.71165 111.112 7.71165C111.566 7.71165 112.001 7.76491 112.417 7.87145C112.836 7.97798 113.207 8.14311 113.53 8.36683C113.857 8.59055 114.114 8.8782 114.302 9.22976C114.49 9.57777 114.585 9.99503 114.585 10.4815V16H112.433V14.8654H112.369C112.237 15.1211 112.061 15.3466 111.841 15.5419C111.621 15.7337 111.357 15.8846 111.048 15.9947C110.739 16.1012 110.382 16.1545 109.977 16.1545ZM110.627 14.5884C110.961 14.5884 111.255 14.5227 111.511 14.3913C111.767 14.2564 111.967 14.0753 112.113 13.848C112.259 13.6207 112.331 13.3633 112.331 13.0756V12.2074C112.26 12.2536 112.163 12.2962 112.038 12.3352C111.918 12.3707 111.781 12.4045 111.628 12.4364C111.475 12.4648 111.323 12.4915 111.17 12.5163C111.017 12.5376 110.879 12.5572 110.755 12.5749C110.488 12.614 110.256 12.6761 110.057 12.7614C109.858 12.8466 109.703 12.962 109.593 13.1076C109.483 13.2496 109.428 13.4272 109.428 13.6403C109.428 13.9492 109.54 14.1854 109.764 14.3487C109.991 14.5085 110.279 14.5884 110.627 14.5884ZM123.153 10.1513L121.075 10.2791C121.04 10.1016 120.963 9.94176 120.846 9.79972C120.729 9.65412 120.574 9.53871 120.383 9.45348C120.194 9.3647 119.969 9.32031 119.706 9.32031C119.355 9.32031 119.058 9.39489 118.817 9.54403C118.575 9.68963 118.454 9.88494 118.454 10.13C118.454 10.3253 118.532 10.4904 118.689 10.6254C118.845 10.7603 119.113 10.8686 119.493 10.9503L120.974 11.2486C121.769 11.4119 122.362 11.6747 122.753 12.0369C123.144 12.3991 123.339 12.875 123.339 13.4645C123.339 14.0007 123.181 14.4712 122.865 14.8761C122.552 15.2809 122.123 15.5969 121.576 15.8242C121.032 16.0479 120.406 16.1598 119.695 16.1598C118.612 16.1598 117.749 15.9343 117.107 15.4833C116.468 15.0288 116.093 14.4109 115.983 13.6296L118.215 13.5124C118.282 13.8427 118.445 14.0948 118.705 14.2688C118.964 14.4393 119.296 14.5245 119.701 14.5245C120.099 14.5245 120.418 14.4482 120.66 14.2955C120.905 14.1392 121.029 13.9386 121.032 13.6935C121.029 13.4876 120.942 13.3189 120.771 13.1875C120.601 13.0526 120.338 12.9496 119.983 12.8786L118.566 12.5962C117.767 12.4364 117.172 12.1594 116.782 11.7653C116.395 11.3711 116.201 10.8686 116.201 10.2578C116.201 9.73224 116.343 9.27947 116.627 8.8995C116.915 8.51953 117.318 8.22656 117.836 8.0206C118.358 7.81463 118.969 7.71165 119.669 7.71165C120.702 7.71165 121.515 7.93004 122.108 8.36683C122.705 8.80362 123.053 9.39844 123.153 10.1513ZM128.497 16.1598C127.655 16.1598 126.93 15.9893 126.323 15.6484C125.72 15.304 125.254 14.8175 124.928 14.1889C124.601 13.5568 124.438 12.8093 124.438 11.9464C124.438 11.1048 124.601 10.3661 124.928 9.73047C125.254 9.09482 125.714 8.59943 126.307 8.24432C126.904 7.8892 127.603 7.71165 128.406 7.71165C128.946 7.71165 129.448 7.79865 129.913 7.97266C130.382 8.14311 130.791 8.40057 131.139 8.74503C131.49 9.08949 131.764 9.52273 131.959 10.0447C132.154 10.5632 132.252 11.1705 132.252 11.8665V12.4897H125.343V11.0835H130.116C130.116 10.7567 130.045 10.4673 129.903 10.2152C129.761 9.96307 129.564 9.76598 129.312 9.62393C129.063 9.47834 128.774 9.40554 128.443 9.40554C128.099 9.40554 127.793 9.48544 127.527 9.64524C127.264 9.80149 127.058 10.0128 126.909 10.2791C126.76 10.5419 126.684 10.8349 126.68 11.158V12.495C126.68 12.8999 126.755 13.2496 126.904 13.5444C127.057 13.8391 127.271 14.0664 127.548 14.2262C127.825 14.386 128.154 14.4659 128.534 14.4659C128.786 14.4659 129.017 14.4304 129.226 14.3594C129.436 14.2884 129.615 14.1818 129.764 14.0398C129.913 13.8977 130.027 13.7237 130.105 13.5178L132.204 13.6562C132.097 14.1605 131.879 14.6009 131.549 14.9773C131.222 15.3501 130.799 15.6413 130.281 15.8509C129.766 16.0568 129.171 16.1598 128.497 16.1598Z" fill="#222222"/>
<path d="M10 20C15.5228 20 20 15.5228 20 10C20 4.47715 15.5228 0 10 0C4.47715 0 0 4.47715 0 10C0 15.5228 4.47715 20 10 20Z" fill="#222222"/>
<path d="M35 18.9546C35 19.5069 34.5512 19.9598 34.0016 19.9047C31.7161 19.6754 29.5675 18.6642 27.9289 17.0257C26.0536 15.1503 25 12.6068 25 9.95462C25 7.30242 26.0536 4.75892 27.9289 2.88352C29.5675 1.245 31.7161 0.233803 34.0016 0.00455276C34.5512 -0.0505672 35 0.402343 35 0.954623V9.95462V18.9546Z" fill="#222222"/>
</svg>
